<svg id="Layer_1" enable-background="new 0 0 800 800" viewBox="0 0 800 800" xmlns="http://www.w3.org/2000/svg" xmlns:xlink="http://www.w3.org/1999/xlink"><linearGradient id="SVGID_1_" gradientUnits="userSpaceOnUse" x1="66.667" x2="733.333" y1="400" y2="400"><stop offset="0" stop-color="#ffa68d"/><stop offset="1" stop-color="#fd3a84"/></linearGradient><path clip-rule="evenodd" d="m400 66.7c-184.1 0-333.3 149.2-333.3 333.3s149.2 333.3 333.3 333.3 333.3-149.2 333.3-333.3-149.2-333.3-333.3-333.3zm0 133.3c55.2 0 100 44.8 100 100s-44.8 100-100 100-100-44.8-100-100 44.8-100 100-100zm160.2 433.7c-45.5 31.3-100.7 49.6-160.2 49.6s-114.7-18.3-160.2-49.6c-20.1-13.8-28.7-40.2-17-61.6 24.2-44.4 74.2-72.1 177.2-72.1s153 27.7 177.3 72.1c11.7 21.4 3.1 47.8-17.1 61.6z" fill="url(#SVGID_1_)" fill-rule="evenodd"/></svg>